# xmcd
#
# Track frame offsets: 
#        180
#        8036
#        37155
#        52322
#        73691
#        106852
#        139402
#        155419
#        172821
#
# Disc length: 2713 seconds
#
# Revision: 4
# Processed by: cddbd v1.5.2PL0 Copyright (c) Steve Scherf et al.
# Submitted via: ExactAudioCopy v0.99pb5
#
DISCID=7a0a9709
DTITLE=Vintersemestre - Kirkkokyrpa
DYEAR=1996
DGENRE=Black Metal
TTITLE0=The Gathering
TTITLE1=Opus Dei
TTITLE2=The Darkness Of Asath
TTITLE3=Satanic Oath
TTITLE4=Tulivaunut - Maigist
TTITLE5=Speak For Themselves
TTITLE6=Human Sacrifice
TTITLE7=Kirvesviilto
TTITLE8=Nocturnal Witchery
EXTD=YEAR: 1997
EXTT0=
EXTT1=
EXTT2=
EXTT3=
EXTT4=
EXTT5=
EXTT6=
EXTT7=
EXTT8=
PLAYORDER=
